<?xml version="1.0" encoding="utf-8"?>
<!-- Generator: Adobe Illustrator 18.1.0, SVG Export Plug-In . SVG Version: 6.00 Build 0)  -->
<svg version="1.1" id="Layer_1" xmlns="http://www.w3.org/2000/svg" xmlns:xlink="http://www.w3.org/1999/xlink" x="0px" y="0px"
	 viewBox="0 0 512 512" enable-background="new 0 0 512 512" xml:space="preserve">
<g>
	<path fill="#333333" d="M351.5,296.1c-59.3,14.5-99.1-1.4-121.6-23.9c-14.7-14.7-25.1-32.5-30.5-52h-66l26.8-55.6h-5.3h5.5h37
		c0.9-4.8,2.2-9.5,3.7-14h-41.7c-6.2-0.3-11.2,3.4-15.4,9.6l-7.6,16.1l-18.9,40.1c-0.8,1.2-5.2,0.9-6.8,0.6
		c-8.2-1.4,1.7-10.9-15.7-11.1c-2.4,0-23.6-1-25.7,0.6c-1.8,1.4-11.2,18.6,0.3,22.8l17.3-0.1c4.3,0,2.8-2,11.1-2
		c2,0.1,2.2,2.1,1,3.8l-15.5,15c-3.6,2.9-4.7,6.9-4.6,11.4c0,14.7,0,29.5,0,44.2c0,2.8,5.3,5.9,5.3,8.7V378h61.9v-17.7h200.6V378
		h62.1v-19.7C386.9,336.9,352.5,298.9,351.5,296.1z M167.2,299.3l-30.9-0.1h-11c-15.2,0-21.2,0.1-25.3-6c-8.2-12.1-1.5-34.7,6-34.3
		c9.2,0.5,19.8,3,30.3,6.3c12,3.8,24.1,8.8,34,13.3C180.4,283.2,176.9,297.9,167.2,299.3z"/>
	<path fill="#E02222" d="M456.3,300.1l-52.5-55.4c-2.5-2.6-5.4-4.4-8.4-5.9c9.6-15.5,14.9-33.2,14.9-51.9
		c-0.1-54.5-44.5-98.8-99-98.8c-26.3,0-51.2,10.3-69.9,29c-18.6,18.7-28.9,43.5-28.9,69.9s10.4,51.3,29,69.9
		c18.7,18.7,43.5,28.9,69.9,28.9c16.3,0,31.7-4.4,45.7-11.7c1.3,3.3,3.1,6.5,5.7,9.2l52.6,55.5c10.7,11.2,28.6,11.7,39.8,1
		C466.5,329.2,467,311.4,456.3,300.1z M309.2,261.7c-41.4-1.1-74.1-35.5-73-76.9s35.5-74.1,76.9-73s74.1,35.6,73,77
		C385.1,230.1,350.7,262.8,309.2,261.7z"/>
</g>
<path fill="#E5E5E5" d="M256,512c-68.4,0-132.7-26.6-181-75S0,324.4,0,256c0-68.4,26.6-132.7,75-181S187.6,0,256,0
	c68.4,0,132.7,26.6,181,75s75,112.6,75,181c0,68.4-26.6,132.7-75,181S324.4,512,256,512z M256,5.9c-66.8,0-129.6,26-176.8,73.2
	C31.9,126.4,5.9,189.2,5.9,256c0,66.8,26,129.6,73.2,176.8c47.2,47.2,110,73.2,176.8,73.2c66.8,0,129.6-26,176.8-73.2
	c47.2-47.2,73.2-110,73.2-176.8c0-66.8-26-129.6-73.2-176.8C385.6,31.9,322.8,5.9,256,5.9z"/>
</svg>
